<svg id="Capa_1" enable-background="new 0 0 64 64" height="512" viewBox="0 0 64 64" width="512" xmlns="http://www.w3.org/2000/svg"><g clip-rule="evenodd" fill-rule="evenodd"><path d="m47.989 63.996h-32c-8.836 0-16-7.164-16-16v-32c0-8.836 7.164-16 16-16h32c8.837 0 16 7.163 16 16v32c0 8.837-7.164 16-16 16" fill="#00b900"/><path d="m30 18h18c4.971 0 9-4.03 9-9.001 0-4.614-3.49-8.481-8.08-8.953-.306-.017-.609-.046-.92-.046h-32c-8.836 0-16 7.164-16 16v32c0-16.568 13.432-30 30-30" fill="#19d219"/><path d="m48 32c-8.837 0-16 7.163-16 16s7.163 16 16 16 16-7.163 16-16v-32c0 8.837-7.163 16-16 16" fill="#009b00"/></g><path d="m55.198 29.185c0-10.426-10.453-18.909-23.302-18.909s-23.301 8.483-23.301 18.909c0 9.348 8.289 17.177 19.487 18.657.759.164 1.792.5 2.053 1.149.181.688.207 1.408.075 2.107 0 0-.273 1.644-.332 1.995-.102.589-.469 2.304 2.018 1.256s13.419-7.902 18.308-13.529c3.376-3.703 4.994-7.461 4.994-11.635zm-31.705 6.322c.009.262-.195.482-.457.493h-6.58c-.145.001-.452-.139-.456-.492v-11.016c-.009-.262.195-.482.457-.492h1.647c.262.01.466.23.457.492v8.749h4.475c.262.011.466.231.457.493zm3.97.001c.009.262-.196.482-.458.491h-1.647c-.262-.01-.466-.229-.457-.491v-11.016c-.009-.262.195-.482.457-.492h1.647c.262.01.467.23.458.492zm11.335 0c.009.262-.196.482-.458.491h-1.646c-.04 0-.237-.012-.375-.208l-4.694-6.826v6.543c.009.262-.195.481-.457.491h-1.647c-.262-.01-.466-.229-.458-.491v-11.016c-.009-.262.196-.482.458-.492h1.663s.238.009.364.219l4.689 6.818v-6.545c-.01-.262.195-.482.457-.492h1.646c.262.01.467.23.458.492zm9.093-9.242c.01.262-.195.482-.457.492h-4.474v1.862h4.474c.262.01.467.231.457.493v1.773c.01.262-.194.482-.456.492h-.001-4.474v1.863h4.474c.262.01.467.231.457.493v1.773c.01.262-.195.482-.457.492h-6.579c-.12 0-.435-.096-.457-.491v-11.016c-.001-.125.093-.467.457-.492h6.579c.262.01.467.23.457.492z" fill="#fff"/></svg>