<?xml version="1.0" encoding="iso-8859-1"?>
<!-- Generator: Adobe Illustrator 19.0.0, SVG Export Plug-In . SVG Version: 6.00 Build 0)  -->
<svg version="1.1" id="Capa_1" xmlns="http://www.w3.org/2000/svg" xmlns:xlink="http://www.w3.org/1999/xlink" x="0px" y="0px"
	 viewBox="0 0 512 512" style="enable-background:new 0 0 512 512;" xml:space="preserve">
<path style="fill:#366DB6;" d="M494.707,247.172c-1.112-39.954-12.041-74.743-20.701-113.355c-0.742-3.293,0.636-5.87,2.745-7.45
	c-22.228-37.729-53.831-69.261-91.63-91.392c-1.766,3.399-5.685,5.535-9.799,2.834c-33.174-21.839-82.962-33.792-121.944-31.32
	c-43.617,2.763-78.424,19.95-118.457,33.721c-4.529,1.554-7.733-1.271-8.678-4.864C88.735,57.45,57.37,88.85,35.275,126.358
	c2.207,1.501,3.452,4.122,2.172,7.468c-8.527,22.254-20.242,47.925-21.804,71.971c-1.006,15.475,2.745,29.74-1.916,44.994
	c-0.512,1.66-1.554,2.957-2.851,3.84c1.686,9.393,3.151,18.715,2.975,27.983c-0.238,12.791-5.208,21.99-1.624,35.487
	c4.07,15.325,14.954,25.988,20.25,40.218c2.313,6.215,0.38,13.462,3.116,19.209c1.324,2.772,0.856,5.605-0.556,7.733
	c21.963,37.447,53.16,68.82,90.483,90.977c2.022-2.313,5.146-3.346,8.404-0.936c68.264,50.414,172.2,36.087,243.606,1.103
	c2.86-1.404,5.544-0.803,7.601,0.653c37.791-22.14,69.402-53.698,91.613-91.445c-0.441-1.28-0.503-2.684,0.026-4.122
	c10.602-28.548,20.551-59.18,24.285-89.503c1.554-12.623,1.818-25.159,1.536-37.667C498.812,254.226,494.83,251.586,494.707,247.172
	z"/>
<circle style="fill:#1F436D;" cx="256" cy="256" r="194.207"/>
<g>
	<path style="fill:#ED8A19;" d="M256,282.483c-6.753,18.45-21.098,35.31-39.027,35.31c-15.104,0-27.516-8.572-37.614-20.18
		c-13.427-15.431-19.412-50.873,5.482-77.577C197.464,206.486,256,141.241,256,141.241s58.43,65.245,71.053,78.795
		c24.885,26.703,19.2,62.146,5.482,77.577c-10.222,11.494-22.51,20.18-37.614,20.18C276.983,317.793,262.753,300.932,256,282.483
		L256,282.483z"/>
	<path style="fill:#ED8A19;" d="M256,282.483c0,43.917,28.566,88.276,52.966,88.276H203.034C227.434,370.759,256,326.4,256,282.483"
		/>
</g>
<g>
	<path style="fill:#EBBA16;" d="M256,61.793c30.852,0,60.001,7.221,85.901,20.03l45.515-45.515C348.999,13.268,304.057,0,256,0
		s-92.999,13.268-131.425,36.299l45.515,45.515C195.999,69.014,225.148,61.793,256,61.793z"/>
	<path style="fill:#EBBA16;" d="M256,450.207c-30.852,0-60.001-7.221-85.901-20.03l-45.515,45.515
		C163.001,498.732,207.943,512,256,512s92.999-13.268,131.425-36.299l-45.515-45.515C316.001,442.986,286.852,450.207,256,450.207z"
		/>
	<path style="fill:#EBBA16;" d="M450.207,256c0,30.852-7.221,60.001-20.03,85.901l45.515,45.515
		C498.732,348.999,512,304.057,512,256s-13.268-92.999-36.299-131.425l-45.515,45.515C442.986,195.999,450.207,225.148,450.207,256z
		"/>
	<path style="fill:#EBBA16;" d="M61.793,256c0-30.852,7.221-60.001,20.03-85.901l-45.515-45.515C13.268,163.001,0,207.943,0,256
		s13.268,92.999,36.299,131.425l45.515-45.515C69.014,316.001,61.793,286.852,61.793,256z"/>
</g>
<g>
</g>
<g>
</g>
<g>
</g>
<g>
</g>
<g>
</g>
<g>
</g>
<g>
</g>
<g>
</g>
<g>
</g>
<g>
</g>
<g>
</g>
<g>
</g>
<g>
</g>
<g>
</g>
<g>
</g>
</svg>
