<svg id="Layer_3" enable-background="new 0 0 64 64" height="512" viewBox="0 0 64 64" width="512" xmlns="http://www.w3.org/2000/svg"><g><path d="m4 34h56v24h-56z" fill="#e7e4dd"/><path d="m4 34v14.497c3.676 1.606 7.732 2.503 12 2.503 11.911 0 22.201-6.942 27.044-17z" fill="#fafaf8"/><path d="m8 38h28v20h-28z" fill="#9d958c"/><path d="m12 42h20v16h-20z" fill="#c4bfba"/><path d="m2 58h60v4h-60z" fill="#767069"/><path d="m42 38h14v20h-14z" fill="#9d958c"/><path d="m46 42h6v6h-6z" fill="#92d8f1"/><path d="m3 26h57v8h-57z" fill="#92d8f1"/><path d="m45.577 26h-42.577v8h40.044c1.201-2.494 2.06-5.181 2.533-8z" fill="#bee8f7"/><path d="m2 6h60v16h-60z" fill="#9d958c"/><path d="m2 22h43.975c.011-.333.025-.665.025-1 0-5.466-1.469-10.586-4.023-15h-39.977z" fill="#c4bfba"/><path d="m4 2h56v4h-56z" fill="#e7e4dd"/><path d="m39.215 2h-35.215v4h37.977c-.816-1.409-1.737-2.748-2.762-4z" fill="#f5f4f1"/><path d="m4 22h56v4h-56z" fill="#e7e4dd"/><path d="m45.975 22h-41.975v4h41.577c.22-1.307.353-2.642.398-4z" fill="#f5f4f1"/><g><path d="m19 19h-4c-.553 0-1-.448-1-1v-8c0-.552.447-1 1-1h4c1.654 0 3 1.346 3 3 0 .768-.29 1.469-.766 2 .476.531.766 1.232.766 2 0 1.654-1.346 3-3 3zm-3-2h3c.552 0 1-.449 1-1s-.448-1-1-1h-3zm0-4h3c.552 0 1-.449 1-1s-.448-1-1-1h-3z" fill="#fff"/></g><path d="m28 9c-2.206 0-4 1.794-4 4v6h2v-3h4v3h2v-6c0-2.206-1.794-4-4-4zm-2 5v-1c0-1.103.897-2 2-2s2 .897 2 2v1z" fill="#fff"/><g><path d="m41 19c-.309 0-.607-.144-.8-.4l-4.2-5.6v6h-2v-9c0-.431.275-.812.684-.949.41-.136.858.005 1.116.349l4.2 5.6v-6h2v9c0 .431-.275.812-.684.949-.104.034-.211.051-.316.051z" fill="#fff"/></g><g><path d="m45.447 14.895-.895-1.789 1.316-.658c1.316-.658 2.132-1.979 2.132-3.448h2c0 2.231-1.24 4.238-3.236 5.236z" fill="#fff"/></g><path d="m46.764 13.764-.764-.382v-4.382h-2v10h2v-3.37c1.235.678 2 1.952 2 3.37h2c0-2.231-1.24-4.238-3.236-5.236z" fill="#fff"/><g><path d="m21 42h2v16h-2z" fill="#9d958c"/></g><g><path d="m17 26h2v8h-2z" fill="#fff"/></g><g><path d="m45 26h2v8h-2z" fill="#fff"/></g><g><path d="m31 26h2v8h-2z" fill="#fff"/></g></g></svg>