<?xml version="1.0" encoding="utf-8"?>
<!-- Generator: Adobe Illustrator 25.2.0, SVG Export Plug-In . SVG Version: 6.00 Build 0)  -->
<svg version="1.1" id="Capa_1" xmlns="http://www.w3.org/2000/svg" xmlns:xlink="http://www.w3.org/1999/xlink" x="0px" y="0px"
	 viewBox="0 0 512 512" style="enable-background:new 0 0 512 512;" xml:space="preserve">
<style type="text/css">
	.st0{fill:#ECEFF1;}
	.st1{fill:#002D5F;}
	.st2{fill:#455A64;}
	.st3{fill:#00397F;}
	.st4{fill:#E8C675;}
</style>
<path class="st0" d="M458.3,89.4H254c-1.1,0-2.3,0.2-3.4,0.5l-2.6,0.9c-5.6,1.9-8.7,7.8-6.9,13.4v0.1l108.1,310.3l-71,79.9
	c-3.9,4.4-3.4,11.1,1,15c1.9,1.7,4.4,2.6,7.1,2.6h172.1c29.7,0,53.7-23.7,53.7-52.8V142.3C512,113.1,487.9,89.4,458.3,89.4z"/>
<path class="st1" d="M371.3,412.6c-1.7-3.8-5.5-6.1-9.8-6.2H254c-5.9,0-10.8,4.8-10.8,10.6c0,1.3,0.2,2.6,0.7,3.8l32.3,84.5
	c1.3,3.5,4.4,6,8.2,6.6c0.6,0.1,1.3,0.2,1.9,0.2c3.1,0,6-1.3,8.1-3.6l75.3-84.5C372.3,420.8,373,416.3,371.3,412.6z"/>
<g>
	<path class="st2" d="M458.3,237.4H307.7c-5.9,0-10.8-4.8-10.8-10.6c0-5.8,4.8-10.6,10.8-10.6h150.5c5.9,0,10.8,4.8,10.8,10.6
		C469,232.6,464.2,237.4,458.3,237.4z"/>
	<path class="st2" d="M372.2,237.4c-5.9,0-10.8-4.8-10.8-10.6v-21.1c0-5.8,4.8-10.6,10.8-10.6c5.9,0,10.8,4.8,10.8,10.6v21.1
		C383,232.6,378.1,237.4,372.2,237.4z"/>
	<path class="st2" d="M339.9,364.1c-5.9,0-10.8-4.8-10.8-10.6c0-3.4,1.7-6.6,4.5-8.6c47.2-32.9,81.5-99.8,81.5-118.1
		c0-5.8,4.8-10.6,10.8-10.6c5.9,0,10.8,4.8,10.8,10.6c0,27.8-41.4,101.1-90.5,135.4C344.4,363.5,342.3,364.1,339.9,364.1z"/>
	<path class="st2" d="M426,385.2c-2.7,0-5.2-1-7.3-2.8c-7.8-7-76.5-69.4-88.7-98.9c-2.2-5.4,0.4-11.6,5.9-13.8s11.8,0.4,14,5.8
		c8.8,21.3,63.1,73.1,83.4,91.2c4.4,4,4.7,10.6,0.7,15C432,384,429,385.2,426,385.2z"/>
</g>
<path class="st3" d="M375.8,408.5L236,7.1c-1.5-4.3-5.5-7.1-10.2-7.1H53.7C24.1,0,0,23.7,0,52.8v316.9c0,29.2,24.1,52.8,53.7,52.8
	h311.8c5.9,0,10.8-4.8,10.8-10.6C376.3,410.8,376.1,409.7,375.8,408.5z"/>
<g>
	<path class="st4" d="M200.2,300.8c-4.5,0-8.6-2.8-10.1-7l-43.6-120l-43.7,120c-2.2,5.4-8.5,8-14,5.8c-5.2-2.1-7.9-7.7-6.2-13
		l53.7-147.9c2.6-5.4,9.3-7.8,14.9-5.2c2.3,1.1,4.2,3,5.3,5.2l53.7,147.9c2,5.4-0.9,11.5-6.5,13.5
		C202.7,300.6,201.5,300.8,200.2,300.8z"/>
	<path class="st4" d="M168,237.4h-43c-5.9,0-10.8-4.8-10.8-10.6c0-5.8,4.8-10.6,10.8-10.6h43c5.9,0,10.8,4.8,10.8,10.6
		C178.7,232.6,173.9,237.4,168,237.4z"/>
</g>
</svg>
