<?xml version="1.0" encoding="utf-8"?>
<!-- Generator: Adobe Illustrator 25.2.0, SVG Export Plug-In . SVG Version: 6.00 Build 0)  -->
<svg version="1.1" id="Capa_1" xmlns="http://www.w3.org/2000/svg" xmlns:xlink="http://www.w3.org/1999/xlink" x="0px" y="0px"
	 viewBox="0 0 512 512" style="enable-background:new 0 0 512 512;" xml:space="preserve">
<style type="text/css">
	.st0{fill:#ECEFF1;}
	.st1{fill:#171D31;}
	.st2{fill:#455A64;}
	.st3{fill:#0A005F;}
	.st4{fill:#E8C675;}
</style>
<path class="st0" d="M458.7,85.3H256c-1.1,0-2.3,0.2-3.4,0.5l-2.6,0.9c-5.6,1.9-8.6,7.9-6.8,13.5c0,0,0,0.1,0,0.1l107.2,313.3
	L280,494.3c-3.9,4.4-3.4,11.2,1,15.1c1.9,1.7,4.4,2.6,7,2.6h170.7c29.5,0,53.3-23.9,53.3-53.3v-320C512,109.2,488.1,85.3,458.7,85.3
	z"/>
<path class="st1" d="M372.4,411.6c-1.7-3.8-5.5-6.2-9.7-6.3H256c-5.9,0-10.7,4.8-10.7,10.7c0,1.3,0.2,2.6,0.7,3.8l32,85.3
	c1.3,3.5,4.4,6.1,8.1,6.7c0.6,0.1,1.3,0.2,1.9,0.2c3.1,0,6-1.3,8-3.6l74.7-85.3C373.4,419.9,374.1,415.4,372.4,411.6z"/>
<g>
	<path class="st2" d="M458.7,234.7H309.3c-5.9,0-10.7-4.8-10.7-10.7s4.8-10.7,10.7-10.7h149.3c5.9,0,10.7,4.8,10.7,10.7
		C469.3,229.9,464.6,234.7,458.7,234.7z"/>
	<path class="st2" d="M373.3,234.7c-5.9,0-10.7-4.8-10.7-10.7v-21.3c0-5.9,4.8-10.7,10.7-10.7s10.7,4.8,10.7,10.7V224
		C384,229.9,379.2,234.7,373.3,234.7z"/>
	<path class="st2" d="M341.3,362.7c-5.9,0-10.7-4.8-10.7-10.7c0-3.4,1.7-6.7,4.5-8.7C381.9,310.1,416,242.5,416,224
		c0-5.9,4.8-10.7,10.7-10.7s10.7,4.8,10.7,10.7c0,28.1-41.1,102.1-89.8,136.7C345.7,362,343.6,362.7,341.3,362.7z"/>
	<path class="st2" d="M426.7,384c-2.7,0-5.2-1-7.2-2.8c-7.7-7.1-75.9-70.1-88-99.9c-2.2-5.5,0.4-11.7,5.9-13.9s11.7,0.4,13.9,5.9
		c8.7,21.5,62.6,73.8,82.7,92.1c4.4,4,4.7,10.7,0.7,15.1C432.6,382.7,429.7,384,426.7,384z"/>
</g>
<path class="st3" d="M372.8,412.5L234.1,7.2C232.6,2.9,228.6,0,224,0H53.3C23.9,0,0,23.9,0,53.3v320c0,29.5,23.9,53.3,53.3,53.3
	h309.3c5.9,0,10.7-4.8,10.7-10.7C373.3,414.8,373.1,413.7,372.8,412.5z"/>
<g>
	<path class="st4" d="M202.7,298.7c-4.5,0-8.5-2.8-10-7.1l-43.3-121.2L106,291.6c-2.2,5.5-8.4,8.1-13.9,5.9
		c-5.2-2.1-7.8-7.8-6.2-13.1l53.3-149.3c2.6-5.5,9.2-7.9,14.8-5.3c2.3,1.1,4.2,3,5.3,5.3l53.3,149.3c2,5.5-0.9,11.6-6.4,13.6
		C205.1,298.5,203.9,298.7,202.7,298.7z"/>
	<path class="st4" d="M170.7,234.7H128c-5.9,0-10.7-4.8-10.7-10.7s4.8-10.7,10.7-10.7h42.7c5.9,0,10.7,4.8,10.7,10.7
		C181.3,229.9,176.6,234.7,170.7,234.7z"/>
</g>
</svg>
