<?xml version="1.0" encoding="utf-8"?>
<!-- Generator: Adobe Illustrator 24.0.1, SVG Export Plug-In . SVG Version: 6.00 Build 0)  -->
<svg version="1.1" id="Layer_1" xmlns="http://www.w3.org/2000/svg" xmlns:xlink="http://www.w3.org/1999/xlink" x="0px" y="0px"
	 viewBox="0 0 474.8 474.8" style="enable-background:new 0 0 474.8 474.8;" xml:space="preserve">
<style type="text/css">
	.st0{fill:#FEFEFE;}
	.st1{fill:#002D64;}
	.st2{fill:#F48A1E;}
	.st3{fill:#0050EE;}
</style>
<circle class="st0" cx="237.4" cy="237.4" r="237.4"/>
<path class="st1" d="M282.7,262.6c0-35.9,0-71.7,0-107.6c0-2.2,0.6-2.7,2.7-2.6c10.3,0.1,20.6,0.1,30.9,0c1.6,0,2,0.4,2,2
	c-0.1,13.4,0,26.8,0,40.3c0,0.8,0,1.5,0,2.6c3.4-1.7,6.6-3.4,10-4.6c12-4.5,24.3-5.9,37-3.7c30.2,5.1,53.4,28.3,58.5,58.6
	c5.1,30.3-10.9,61.4-38.6,74.9c-28.7,14-62,7.7-83.8-15.7c-0.3-0.3-0.6-0.6-1-0.8c-0.9-0.1-1.3-0.7-1.8-1.4
	c-8.6-10.6-13.9-22.7-15.8-36.2C282.5,266.4,282.4,264.5,282.7,262.6z"/>
<path class="st2" d="M282.7,262.6c0.8,11.5,4,22.4,9.9,32.4c2.3,3.8,5,7.3,7.8,10.8c-12,13.4-26.9,21.4-44.7,23.4
	c-24.1,2.6-44.5-5.3-61.1-22.9c-0.1-0.1-0.3-0.3-0.5-0.4c-0.9-0.2-1.4-0.9-2-1.6c-8.9-11-14.2-23.6-15.9-37.7
	c-0.2-1.6,0.5-3.1,0.1-4.6c0-35.6,0-71.2,0-106.8c0-3.2-0.3-2.8,2.9-2.8c10.2,0,20.5,0,30.7,0c1.6,0,2,0.4,2,2
	c-0.1,10.4,0,20.9-0.1,31.3c0,1.6,0.4,2.2,2.1,2.2c10.4-0.1,20.9,0,31.3-0.1c1.7,0,2.1,0.5,2.1,2.1c-0.1,10.5-0.1,21,0,31.5
	c0,1.6-0.5,2-2,2c-10.5-0.1-21,0-31.5-0.1c-1.4,0-2,0.3-2,1.9c0.1,11.6-0.1,23.3,0.1,34.9c0.4,21.1,20.7,37.5,41.5,33.5
	c15.6-3,26.7-14.6,28.9-30.1C282.4,263.3,282.6,262.9,282.7,262.6z"/>
<path class="st3" d="M176.3,262c0.5,6.8,1.7,13.5,3.9,19.9c3,8.9,7.9,16.7,13.9,23.9c-15.7,17.1-35.2,25.1-58.4,23.7
	c-28.5-1.7-54.3-22.4-62.5-49.8c-2.1-7-3.1-14.1-3.1-21.4c0-34.5,0-69,0-103.5c0-2,0.5-2.5,2.5-2.4c10.4,0.1,20.7,0.1,31.1,0
	c1.6,0,2,0.5,2,2c-0.1,10.4,0,20.7-0.1,31.1c0,1.8,0.3,2.4,2.3,2.4c10.4-0.1,20.7,0,31.1-0.1c1.7,0,2.2,0.4,2.1,2.1
	c-0.1,10.5-0.1,21,0,31.5c0,1.6-0.4,2-2,2c-10.4-0.1-20.9,0-31.3-0.1c-1.8,0-2.2,0.5-2.2,2.3c0.1,11.2,0,22.4,0,33.7
	c0.1,21.7,20.5,38.4,41.7,34.3C163.1,290.6,174.8,278,176.3,262z"/>
<path class="st0" d="M353.7,223.5c19.5,0,35.4,15.8,35.4,35.3c0.1,19.5-15.9,35.5-35.5,35.5c-19.5,0-35.4-16-35.4-35.6
	C318.2,239.3,334.2,223.5,353.7,223.5z"/>
</svg>
