<?xml version="1.0" encoding="utf-8"?>
<!-- Generator: Adobe Illustrator 25.2.0, SVG Export Plug-In . SVG Version: 6.00 Build 0)  -->
<svg version="1.1" id="Capa_1" xmlns="http://www.w3.org/2000/svg" xmlns:xlink="http://www.w3.org/1999/xlink" x="0px" y="0px"
	 viewBox="0 0 512 512" style="enable-background:new 0 0 512 512;" xml:space="preserve">
<style type="text/css">
	.st0{fill:url(#SVGID_1_);}
	.st1{fill:url(#SVGID_2_);}
	.st2{fill:url(#SVGID_3_);}
	.st3{fill:#FFFFFF;}
</style>
<linearGradient id="SVGID_1_" gradientUnits="userSpaceOnUse" x1="307.3061" y1="574.7494" x2="554.4661" y2="821.9094" gradientTransform="matrix(1.0039 0 0 1.0039 0.3833 -277.9858)">
	<stop  offset="0" style="stop-color:#A7F3CE"/>
	<stop  offset="1" style="stop-color:#61DB99"/>
</linearGradient>
<path class="st0" d="M340.4,164.1c93.5-1.4,169.8,72.2,171.6,165.6c0.3,13.7-1.1,27.1-3.9,39.9c-4.8,21.7-7.6,43.8-7.6,66v42.9
	c0,6.6-5.3,11.9-11.9,11.9h-42.9c-22.2,0-44.3,2.8-66,7.6c-12.8,2.8-26.2,4.2-39.9,3.9C246.2,500.3,172.6,424,174,330.5
	C175.4,239.2,249.1,165.5,340.4,164.1z"/>
<linearGradient id="SVGID_2_" gradientUnits="userSpaceOnUse" x1="388.2133" y1="655.6522" x2="283.2333" y2="550.6822" gradientTransform="matrix(1.0039 0 0 1.0039 0.3833 -277.9858)">
	<stop  offset="0" style="stop-color:#E8C675"/>
	<stop  offset="1" style="stop-color:#FFF394"/>
</linearGradient>
<path class="st1" d="M340.4,164.1c93.5-1.4,169.8,72.2,171.6,165.6c0.3,13.7-1.1,27.1-3.9,39.9c-4.8,21.7-7.6,43.8-7.6,66v42.9
	c0,6.6-5.3,11.9-11.9,11.9h-42.9c-22.2,0-44.3,2.8-66,7.6c-12.8,2.8-26.2,4.2-39.9,3.9C246.2,500.3,172.6,424,174,330.5
	C175.4,239.2,249.1,165.5,340.4,164.1z"/>
<linearGradient id="SVGID_3_" gradientUnits="userSpaceOnUse" x1="129.7845" y1="458.6809" x2="390.7346" y2="719.6309" gradientTransform="matrix(1.0039 0 0 1.0039 0.3833 -277.9858)">
	<stop  offset="0" style="stop-color:#5F6DCD"/>
	<stop  offset="1" style="stop-color:#153960"/>
</linearGradient>
<path class="st2" d="M209.1,9.9C95.2,8.2,2.2,97.8,0,211.7c-0.3,16.7,1.3,33,4.8,48.6c5.8,26.4,9.3,53.3,9.3,80.4V393
	c0,8,6.5,14.5,14.5,14.5H81c27.1,0,54,3.5,80.4,9.3c15.6,3.4,31.9,5.1,48.6,4.8c113.9-2.2,203.5-95.2,201.8-209.1
	C410.1,101.4,320.3,11.6,209.1,9.9z"/>
<path class="st3" d="M347.7,204.9c0-65.9-66.1-119.6-147.4-119.6S53,138.9,53,204.9c0,59.1,52.4,108.6,123.2,118
	c4.8,1,11.3,3.2,13,7.3c1.1,4.4,1.3,8.9,0.5,13.3c0,0-1.7,10.4-2.1,12.6c-0.6,3.7-3,14.6,12.8,7.9s84.9-50,115.8-85.6
	C337.5,255,347.7,231.3,347.7,204.9L347.7,204.9z M147.2,244.8c0.1,1.7-1.2,3-2.9,3.1h-41.6c-0.9,0-2.9-0.9-2.9-3.1v-69.7
	c-0.1-1.7,1.2-3,2.9-3.1h10.4c1.7,0.1,2.9,1.5,2.9,3.1v55.3h28.3c1.7,0.1,2.9,1.5,2.9,3.1L147.2,244.8z M172.3,244.9
	c0.1,1.7-1.2,3-2.9,3.1H159c-1.7-0.1-2.9-1.4-2.9-3.1v-69.7c-0.1-1.7,1.2-3,2.9-3.1h10.4c1.7,0.1,3,1.5,2.9,3.1V244.9z M244,244.9
	c0.1,1.7-1.2,3-2.9,3.1h-10.4c-0.3,0-1.5-0.1-2.4-1.3l-29.7-43.2v41.4c0.1,1.7-1.2,3-2.9,3.1h-10.4c-1.7-0.1-2.9-1.4-2.9-3.1v-69.7
	c-0.1-1.7,1.2-3,2.9-3.1h10.5c0,0,1.5,0.1,2.3,1.4l29.7,43.1v-41.4c-0.1-1.7,1.2-3,2.9-3.1h10.4c1.7,0.1,3,1.5,2.9,3.1V244.9z
	 M301.5,186.4c0.1,1.7-1.2,3-2.9,3.1h-28.3v11.8h28.3c1.7,0.1,3,1.5,2.9,3.1v11.2c0.1,1.7-1.2,3-2.9,3.1h0h-28.3v11.8h28.3
	c1.7,0.1,3,1.5,2.9,3.1v11.2c0.1,1.7-1.2,3-2.9,3.1H257c-0.8,0-2.8-0.6-2.9-3.1v-69.7c0-0.8,0.6-3,2.9-3.1h41.6
	c1.7,0.1,3,1.5,2.9,3.1V186.4z"/>
</svg>
