<?xml version="1.0" encoding="utf-8"?>
<!-- Generator: Adobe Illustrator 25.2.0, SVG Export Plug-In . SVG Version: 6.00 Build 0)  -->
<svg version="1.1" id="Capa_1" xmlns="http://www.w3.org/2000/svg" xmlns:xlink="http://www.w3.org/1999/xlink" x="0px" y="0px"
	 viewBox="0 0 512 512" style="enable-background:new 0 0 512 512;" xml:space="preserve">
<style type="text/css">
	.st0{fill:url(#SVGID_1_);}
	.st1{fill:url(#SVGID_2_);}
	.st2{fill:#FFFFFF;}
</style>
<linearGradient id="SVGID_1_" gradientUnits="userSpaceOnUse" x1="374.7637" y1="643.0351" x2="272.7258" y2="541.0069" gradientTransform="matrix(1.0464 8.416961e-02 -8.434882e-02 1.0487 43.038 -324.3965)">
	<stop  offset="0" style="stop-color:#E8C675"/>
	<stop  offset="1" style="stop-color:#FFF394"/>
</linearGradient>
<path class="st0" d="M348.2,158c94.8,6.2,166.1,87.1,160.3,182.2c-0.9,14-3.3,27.4-7.2,40.2c-6.6,21.6-11.3,43.8-13.1,66.4
	l-3.5,43.6c-0.5,6.7-6.4,11.7-13,11.1l-43.5-3.5c-22.5-1.8-45.1-0.7-67.5,2.4c-13.2,1.8-26.9,2.1-40.7,0.7
	c-94.6-9.5-162.9-92.9-153.8-187.7C174.9,220.8,255.6,152,348.2,158z"/>
<linearGradient id="SVGID_2_" gradientUnits="userSpaceOnUse" x1="207.6779" y1="407.9919" x2="206.9392" y2="765.7503" gradientTransform="matrix(0.9281 -0.3827 0.3827 0.9281 -173.628 -162.1617)">
	<stop  offset="0" style="stop-color:#557CFF"/>
	<stop  offset="1" style="stop-color:#153960"/>
</linearGradient>
<path class="st1" d="M130.2,19.9C27.3,60.5-23,175.3,17.2,278.4c5.9,15.1,13.4,29.1,22.3,41.9c15,21.6,28.1,44.4,38.1,68.7l19.4,47
	c3,7.2,11.2,10.6,18.4,7.7l47-19.4c24.3-10,49.7-16.9,75.6-21.4c15.3-2.7,30.5-7.2,45.4-13.7C384.7,345,430.7,228.4,387,126.8
	C344.4,27.7,230.6-19.7,130.2,19.9z"/>
<path class="st2" d="M345.7,192.2c0-66.6-66.9-120.7-149.1-120.7S47.4,125.6,47.4,192.2c0,59.7,53,109.7,124.7,119.1
	c4.9,1,11.5,3.2,13.1,7.3c1.2,4.4,1.3,9,0.5,13.5c0,0-1.7,10.5-2.1,12.7c-0.7,3.8-3,14.7,12.9,8c15.9-6.7,85.9-50.5,117.2-86.4
	C335.3,242.8,345.7,218.8,345.7,192.2L345.7,192.2z M142.8,232.6c0.1,1.7-1.2,3.1-2.9,3.1H97.8c-0.9,0-2.9-0.9-2.9-3.1v-70.3
	c-0.1-1.7,1.2-3.1,2.9-3.1h10.5c1.7,0.1,3,1.5,2.9,3.1v55.9h28.6c1.7,0.1,3,1.5,2.9,3.1V232.6z M168.2,232.6
	c0.1,1.7-1.3,3.1-2.9,3.1h-10.5c-1.7-0.1-3-1.5-2.9-3.1v-70.3c-0.1-1.7,1.2-3.1,2.9-3.1h10.5c1.7,0.1,3,1.5,2.9,3.1V232.6z
	 M240.7,232.6c0.1,1.7-1.3,3.1-2.9,3.1h-10.5c-0.3,0-1.5-0.1-2.4-1.3l-30-43.6v41.8c0.1,1.7-1.2,3.1-2.9,3.1h-10.5
	c-1.7-0.1-3-1.5-2.9-3.1v-70.3c-0.1-1.7,1.3-3.1,2.9-3.1H192c0,0,1.5,0.1,2.3,1.4l30,43.5v-41.8c-0.1-1.7,1.2-3.1,2.9-3.1h10.5
	c1.7,0.1,3,1.5,2.9,3.1V232.6z M298.9,173.6c0.1,1.7-1.2,3.1-2.9,3.1h-28.6v11.9H296c1.7,0.1,3,1.5,2.9,3.1v11.3
	c0.1,1.7-1.2,3.1-2.9,3.1h0h-28.6v11.9H296c1.7,0.1,3,1.5,2.9,3.1v11.3c0.1,1.7-1.2,3.1-2.9,3.1h-42.1c-0.8,0-2.8-0.6-2.9-3.1v-70.3
	c0-0.8,0.6-3,2.9-3.1H296c1.7,0.1,3,1.5,2.9,3.1V173.6z"/>
</svg>
